<svg width="700" height="239" viewBox="0 0 700 239" fill="none" xmlns="http://www.w3.org/2000/svg">
<g filter="url(#filter0_d_97_2)">
<path d="M294.439 133.941C294.439 146.428 290.953 156.523 283.98 164.225C277.008 171.881 266.777 175.709 253.287 175.709C240.208 175.709 230.273 171.949 223.482 164.43C216.738 156.865 213.365 146.975 213.365 134.762V75.9727H235.514V133.941C235.514 141.279 237.223 146.861 240.641 150.689C244.059 154.472 248.548 156.363 254.107 156.363C259.531 156.363 263.928 154.54 267.301 150.895C270.673 147.203 272.359 141.826 272.359 134.762V75.9727H294.439V133.941ZM336.549 174H314.469V75.9727H336.549V174ZM425.143 168.189C425.143 180.221 421.588 189.677 414.479 196.559C407.415 203.44 397.525 206.881 384.811 206.881C376.926 206.881 370.318 205.536 364.986 202.848C359.7 200.204 355.325 196.536 351.861 191.842L366.832 180.973C369.02 184.117 371.503 186.555 374.283 188.287C377.109 190.064 380.732 190.953 385.152 190.953C390.803 190.953 395.27 189.267 398.551 185.895C401.878 182.568 403.541 177.805 403.541 171.607V166.139H403.268C400.761 169.329 397.639 171.721 393.902 173.316C390.211 174.911 385.882 175.709 380.914 175.709C372.529 175.709 365.488 172.701 359.791 166.686C354.094 160.624 351.246 152.057 351.246 140.982C351.246 128.632 354.573 119.107 361.227 112.408C367.88 105.663 375.742 102.291 384.811 102.291C388.32 102.291 391.738 102.975 395.064 104.342C398.391 105.709 401.126 107.76 403.268 110.494H403.541V104H425.143V168.189ZM403.814 140.367V134.83C403.814 130.501 402.424 126.809 399.645 123.756C396.865 120.657 393.287 119.107 388.912 119.107C383.99 119.107 380.139 120.953 377.359 124.645C374.579 128.336 373.189 133.417 373.189 139.889C373.189 145.859 374.488 150.53 377.086 153.902C379.684 157.229 383.466 158.893 388.434 158.893C392.672 158.893 396.295 157.252 399.303 153.971C402.311 150.689 403.814 146.155 403.814 140.367ZM509.43 174H487.896V133.805C487.896 129.339 486.939 125.784 485.025 123.141C483.111 120.452 480.263 119.107 476.48 119.107C472.698 119.107 469.576 120.52 467.115 123.346C464.654 126.171 463.424 129.749 463.424 134.078V174H441.822V104H463.424V112.887H463.697C465.976 109.697 469.143 107.145 473.199 105.23C477.255 103.271 481.334 102.291 485.436 102.291C493.32 102.291 499.29 104.752 503.346 109.674C507.402 114.596 509.43 121.546 509.43 130.523V174ZM535.748 94.8398C532.011 94.8398 528.958 93.7005 526.588 91.4219C524.218 89.0977 523.033 86.2266 523.033 82.8086C523.033 79.2539 524.218 76.36 526.588 74.127C528.958 71.8939 532.011 70.7773 535.748 70.7773C539.531 70.7773 542.584 71.8939 544.908 74.127C547.278 76.36 548.463 79.2539 548.463 82.8086C548.463 86.3633 547.278 89.2572 544.908 91.4902C542.584 93.7233 539.531 94.8398 535.748 94.8398ZM546.549 174H524.947V104H546.549V174ZM610.533 169.01C608.391 170.969 605.748 172.587 602.604 173.863C599.459 175.094 596.041 175.709 592.35 175.709C584.329 175.709 578.382 173.863 574.508 170.172C570.634 166.48 568.697 160.966 568.697 153.629V119.928H557.35V104H568.697V86.1582L590.23 82.3301V104H607.047V119.928H590.23V153.492C590.23 155.634 590.686 157.252 591.598 158.346C592.555 159.439 593.876 159.986 595.562 159.986C596.565 159.986 597.568 159.827 598.57 159.508C599.618 159.143 600.712 158.437 601.852 157.389L610.533 169.01ZM684.225 145.152H638.561C638.88 149.664 640.429 153.264 643.209 155.953C646.035 158.596 649.726 159.918 654.283 159.918C657.063 159.918 659.592 159.234 661.871 157.867C664.195 156.5 666.269 154.449 668.092 151.715L683.951 160.738C679.941 165.934 675.452 169.739 670.484 172.154C665.517 174.524 660.003 175.709 653.941 175.709C642.366 175.709 633.342 172.587 626.871 166.344C620.4 160.055 617.164 151.305 617.164 140.094C617.164 128.473 620.536 119.267 627.281 112.477C634.026 105.686 642.32 102.291 652.164 102.291C662.372 102.291 670.257 105.322 675.816 111.383C681.422 117.444 684.225 126.559 684.225 138.727V145.152ZM664.195 131.48C664.195 126.695 663.17 123.118 661.119 120.748C659.114 118.333 656.402 117.125 652.984 117.125C648.883 117.125 645.556 118.492 643.004 121.227C640.497 123.961 638.971 127.379 638.424 131.48H664.195Z" fill="white"/>
</g>
<g filter="url(#filter1_d_97_2)">
<circle cx="536" cy="83" r="13" fill="url(#paint0_linear_97_2)" shape-rendering="crispEdges"/>
</g>
<g filter="url(#filter2_f_97_2)">
<path d="M28 169.129V88.0894H56.2325H73.9917V173.632H196.484C205.956 182.636 200.431 190.14 196.484 192.766C153.073 193.141 60.3308 193.666 45.7592 192.766C31.1875 191.866 28.6072 176.633 28 169.129Z" fill="url(#paint1_linear_97_2)" fill-opacity="0.7"/>
</g>
<path d="M170.108 175.537L67.6326 173.875C44.0122 174.872 19.3382 139.625 52.0057 108.035C97.5288 64.0133 108.98 62.591 111.547 74.1171C112.657 79.105 86.2628 142.285 111.547 143.282L192.73 144.945C200.705 147.273 213.68 164.564 192.73 175.537H170.108Z" fill="url(#paint2_linear_97_2)"/>
<g filter="url(#filter3_f_97_2)">
<path d="M54.3885 62.1005C48.2132 50.7532 34.631 50.6467 29.2641 59.8912L30.3895 175.398C31.7376 196.887 42.5326 205.138 58.6512 205.613L184.207 209.312C195.408 203.766 190.254 186.572 184.933 184.652C163.824 183.834 108.016 182.386 80.5864 181.578C56.2671 180.861 57.1959 168.548 55.9836 152.058L54.3885 62.1005Z" fill="url(#paint3_linear_97_2)" fill-opacity="0.33"/>
</g>
<g filter="url(#filter4_d_97_2)">
<path d="M53.4755 46.1184C46.9731 35.396 33.4028 35.6781 28.314 44.7076L32.8374 155.599C34.8164 176.198 45.8422 183.816 61.9569 183.816H187.482C198.507 178.173 192.853 161.807 187.482 160.114C166.372 159.926 110.584 160.114 83.1604 160.114C58.847 160.114 59.4124 148.263 57.7162 132.462L53.4755 46.1184Z" fill="url(#paint4_linear_97_2)"/>
</g>
<defs>
<filter id="filter0_d_97_2" x="197.965" y="59.3773" width="501.659" height="166.904" filterUnits="userSpaceOnUse" color-interpolation-filters="sRGB">
<feFlood flood-opacity="0" result="BackgroundImageFix"/>
<feColorMatrix in="SourceAlpha" type="matrix" values="0 0 0 0 0 0 0 0 0 0 0 0 0 0 0 0 0 0 127 0" result="hardAlpha"/>
<feOffset dy="4"/>
<feGaussianBlur stdDeviation="7.7"/>
<feComposite in2="hardAlpha" operator="out"/>
<feColorMatrix type="matrix" values="0 0 0 0 1 0 0 0 0 1 0 0 0 0 1 0 0 0 0.25 0"/>
<feBlend mode="normal" in2="BackgroundImageFix" result="effect1_dropShadow_97_2"/>
<feBlend mode="normal" in="SourceGraphic" in2="effect1_dropShadow_97_2" result="shape"/>
</filter>
<filter id="filter1_d_97_2" x="450.4" y="0.400002" width="171.2" height="171.2" filterUnits="userSpaceOnUse" color-interpolation-filters="sRGB">
<feFlood flood-opacity="0" result="BackgroundImageFix"/>
<feColorMatrix in="SourceAlpha" type="matrix" values="0 0 0 0 0 0 0 0 0 0 0 0 0 0 0 0 0 0 127 0" result="hardAlpha"/>
<feMorphology radius="9" operator="dilate" in="SourceAlpha" result="effect1_dropShadow_97_2"/>
<feOffset dy="3"/>
<feGaussianBlur stdDeviation="31.8"/>
<feComposite in2="hardAlpha" operator="out"/>
<feColorMatrix type="matrix" values="0 0 0 0 0.677076 0 0 0 0 0.154305 0 0 0 0 0.938461 0 0 0 0.46 0"/>
<feBlend mode="normal" in2="BackgroundImageFix" result="effect1_dropShadow_97_2"/>
<feBlend mode="normal" in="SourceGraphic" in2="effect1_dropShadow_97_2" result="shape"/>
</filter>
<filter id="filter2_f_97_2" x="13.2" y="73.2894" width="203.314" height="134.774" filterUnits="userSpaceOnUse" color-interpolation-filters="sRGB">
<feFlood flood-opacity="0" result="BackgroundImageFix"/>
<feBlend mode="normal" in="SourceGraphic" in2="BackgroundImageFix" result="shape"/>
<feGaussianBlur stdDeviation="7.4" result="effect1_foregroundBlur_97_2"/>
</filter>
<filter id="filter3_f_97_2" x="0.564159" y="24.5495" width="219.008" height="213.463" filterUnits="userSpaceOnUse" color-interpolation-filters="sRGB">
<feFlood flood-opacity="0" result="BackgroundImageFix"/>
<feBlend mode="normal" in="SourceGraphic" in2="BackgroundImageFix" result="shape"/>
<feGaussianBlur stdDeviation="14.35" result="effect1_foregroundBlur_97_2"/>
</filter>
<filter id="filter4_d_97_2" x="17.914" y="31.6" width="186.29" height="166.616" filterUnits="userSpaceOnUse" color-interpolation-filters="sRGB">
<feFlood flood-opacity="0" result="BackgroundImageFix"/>
<feColorMatrix in="SourceAlpha" type="matrix" values="0 0 0 0 0 0 0 0 0 0 0 0 0 0 0 0 0 0 127 0" result="hardAlpha"/>
<feOffset dy="4"/>
<feGaussianBlur stdDeviation="5.2"/>
<feComposite in2="hardAlpha" operator="out"/>
<feColorMatrix type="matrix" values="0 0 0 0 0 0 0 0 0 0 0 0 0 0 0 0 0 0 0.25 0"/>
<feBlend mode="normal" in2="BackgroundImageFix" result="effect1_dropShadow_97_2"/>
<feBlend mode="normal" in="SourceGraphic" in2="effect1_dropShadow_97_2" result="shape"/>
</filter>
<linearGradient id="paint0_linear_97_2" x1="536" y1="70" x2="536" y2="96" gradientUnits="userSpaceOnUse">
<stop offset="0.432692" stop-color="#FFA600"/>
<stop offset="1" stop-color="#FFCC00" stop-opacity="0.66"/>
</linearGradient>
<linearGradient id="paint1_linear_97_2" x1="114.857" y1="88.0894" x2="114.857" y2="193.263" gradientUnits="userSpaceOnUse">
<stop offset="0.639423" stop-color="#3643F7"/>
<stop offset="1" stop-color="#764E72"/>
</linearGradient>
<linearGradient id="paint2_linear_97_2" x1="120.175" y1="68" x2="120.175" y2="175.537" gradientUnits="userSpaceOnUse">
<stop offset="0.00480769" stop-color="#3643F7"/>
<stop offset="1" stop-color="#4C9AD9"/>
</linearGradient>
<linearGradient id="paint3_linear_97_2" x1="112.235" y1="55.351" x2="107.765" y2="207.06" gradientUnits="userSpaceOnUse">
<stop offset="0.322115" stop-color="#E5622E"/>
<stop offset="0.485577" stop-color="#FBC48D"/>
<stop offset="0.990385" stop-color="#FF9100"/>
</linearGradient>
<linearGradient id="paint4_linear_97_2" x1="111.059" y1="38" x2="111.059" y2="183.816" gradientUnits="userSpaceOnUse">
<stop stop-color="#FBE2C1"/>
<stop offset="1" stop-color="#FF8000"/>
</linearGradient>
</defs>
</svg>
